<svg width="512" height="512" viewBox="0 0 512 512" fill="none" xmlns="http://www.w3.org/2000/svg">
<g clip-path="url(#clip0_52_5)">
<rect width="512" height="512" fill="#F7F7F7"/>
<path d="M141.828 25.4825C144.599 25.4792 147.371 25.4701 150.142 25.4612C156.847 25.4436 163.553 25.4472 170.258 25.4589C175.714 25.468 181.17 25.4691 186.626 25.4648C187.407 25.4642 188.187 25.4636 188.992 25.4629C190.578 25.4617 192.164 25.4604 193.751 25.459C208.579 25.4477 223.407 25.4607 238.235 25.4822C250.921 25.5001 263.607 25.497 276.293 25.4786C291.073 25.4571 305.853 25.4488 320.633 25.461C322.213 25.4623 323.793 25.4636 325.373 25.4648C326.15 25.4654 326.927 25.466 327.728 25.4667C333.169 25.4701 338.61 25.4643 344.051 25.4549C350.694 25.4436 357.337 25.4468 363.98 25.468C367.361 25.4784 370.741 25.4806 374.122 25.4694C395.227 25.406 413.004 27.4422 432 37.0001C433.035 37.5118 434.07 38.0236 435.136 38.5508C459.004 51.3926 474.817 73.8759 483.027 99.2422C485.348 108.208 486.294 116.732 486.267 125.983C486.272 127.14 486.276 128.296 486.281 129.488C486.293 133.336 486.292 137.185 486.29 141.034C486.295 143.804 486.303 146.574 486.311 149.345C486.327 156.074 486.333 162.804 486.334 169.534C486.335 175.01 486.339 180.486 486.345 185.963C486.363 201.522 486.372 217.082 486.371 232.642C486.37 233.479 486.37 234.316 486.37 235.179C486.37 236.017 486.37 236.856 486.37 237.72C486.369 251.293 486.388 264.866 486.417 278.44C486.445 292.409 486.459 306.379 486.457 320.348C486.457 328.178 486.462 336.008 486.484 343.837C486.502 350.506 486.506 357.175 486.493 363.844C486.486 367.239 486.488 370.633 486.503 374.028C486.593 395.178 484.578 412.964 475 432C474.488 433.035 473.976 434.07 473.449 435.137C460.607 459.004 438.124 474.817 412.758 483.027C403.792 485.348 395.268 486.294 386.016 486.267C384.86 486.272 383.703 486.277 382.512 486.281C378.663 486.294 374.815 486.292 370.966 486.291C368.196 486.295 365.425 486.303 362.655 486.311C355.925 486.327 349.196 486.333 342.466 486.334C336.99 486.335 331.514 486.339 326.037 486.346C310.478 486.363 294.918 486.372 279.358 486.371C278.521 486.371 277.683 486.371 276.821 486.371C275.982 486.371 275.144 486.371 274.28 486.37C260.707 486.37 247.134 486.389 233.56 486.417C219.591 486.446 205.621 486.459 191.651 486.458C183.822 486.457 175.992 486.462 168.162 486.484C161.493 486.502 154.825 486.507 148.156 486.493C144.761 486.487 141.367 486.488 137.972 486.504C116.822 486.593 99.036 484.578 79.9997 475C78.9646 474.488 77.9295 473.977 76.863 473.449C52.9959 460.608 37.1826 438.124 28.9724 412.758C26.6518 403.792 25.7053 395.268 25.7323 386.017C25.7277 384.86 25.7232 383.704 25.7185 382.512C25.706 378.664 25.7075 374.815 25.7092 370.967C25.7043 368.196 25.6964 365.426 25.6888 362.655C25.6723 355.926 25.6667 349.196 25.6656 342.467C25.6646 336.99 25.6605 331.514 25.6542 326.038C25.6366 310.478 25.6274 294.918 25.6289 279.359C25.6289 278.521 25.629 277.684 25.6291 276.821C25.6292 275.983 25.6293 275.144 25.6293 274.281C25.6302 260.707 25.611 247.134 25.5828 233.561C25.554 219.591 25.5403 205.621 25.542 191.652C25.5427 183.822 25.5373 175.992 25.5157 168.163C25.4973 161.494 25.4932 154.825 25.5067 148.156C25.5131 144.761 25.5113 141.367 25.496 137.972C25.4068 116.835 27.406 99.0211 36.9997 80.0001C37.5231 78.9533 38.0464 77.9066 38.5856 76.8282C51.4379 53.1299 74.1549 36.7036 99.6669 28.8747C113.61 25.2094 127.501 25.435 141.828 25.4825ZM109.332 97.8985C105.204 103.174 103.621 106.967 103.717 113.807C104.612 120.753 109.117 127.111 112.937 132.813C113.918 134.302 114.898 135.792 115.879 137.281C116.389 138.052 116.9 138.823 117.426 139.617C120.1 143.666 122.734 147.741 125.375 151.813C126.479 153.511 127.583 155.209 128.687 156.906C130.855 160.239 133.021 163.572 135.187 166.906C140.95 175.776 146.72 184.641 152.5 193.5C158.813 203.176 165.113 212.86 171.407 222.548C173.561 225.865 175.717 229.181 177.872 232.496C178.951 234.156 180.029 235.815 181.108 237.474C183.913 241.792 186.721 246.108 189.531 250.422C190.112 251.314 190.692 252.206 191.291 253.125C192.393 254.818 193.496 256.511 194.599 258.203C195.103 258.977 195.606 259.75 196.125 260.547C196.56 261.216 196.996 261.884 197.445 262.573C197.958 263.374 198.471 264.175 199 265C199.606 265.741 199.606 265.741 200.224 266.496C205.026 272.911 204.691 279.19 204.612 286.956C204.615 288.358 204.621 289.76 204.629 291.162C204.641 294.167 204.637 297.171 204.622 300.176C204.597 304.929 204.609 309.682 204.626 314.435C204.65 322.806 204.644 331.176 204.632 339.547C204.613 352.159 204.618 364.771 204.652 377.383C204.663 382.107 204.659 386.83 204.642 391.554C204.634 394.491 204.638 397.428 204.645 400.365C204.647 402.374 204.633 404.383 204.619 406.392C204.624 407.59 204.629 408.789 204.635 410.024C204.632 411.583 204.632 411.583 204.629 413.174C205.055 416.419 206.147 418.334 208 421C215.626 420.5 222.124 418.492 229.293 415.914C230.466 415.501 231.638 415.088 232.847 414.662C235.985 413.554 239.121 412.438 242.254 411.316C244.838 410.392 247.423 409.474 250.008 408.556C255.722 406.527 261.434 404.489 267.143 402.446C272.095 400.675 277.053 398.927 282.022 397.202C284.856 396.217 287.686 395.22 290.514 394.217C292.326 393.58 294.144 392.958 295.961 392.336C297.539 391.77 297.539 391.77 299.148 391.191C300.026 390.884 300.905 390.577 301.81 390.26C304.832 388.521 305.561 387.212 307 384C307.391 380.526 307.293 377.083 307.21 373.592C307.198 372.544 307.185 371.496 307.173 370.416C307.146 368.14 307.113 365.863 307.074 363.587C307 358.717 306.979 353.848 306.954 348.978C306.909 339.921 306.842 330.865 306.681 321.809C306.571 315.501 306.532 309.195 306.536 302.885C306.525 300.5 306.489 298.114 306.426 295.73C305.977 278.149 309.65 267.277 320.311 253.245C322.681 250.094 324.808 246.816 326.953 243.508C328.383 241.379 329.816 239.251 331.25 237.125C336.345 229.535 341.381 221.922 346.171 214.134C350.105 207.766 354.208 201.51 358.312 195.25C358.68 194.688 359.049 194.127 359.428 193.548C361.263 190.749 363.098 187.951 364.934 185.153C367.883 180.651 370.818 176.139 373.75 171.625C374.27 170.824 374.791 170.022 375.327 169.196C376.365 167.599 377.402 166.001 378.439 164.403C380.581 161.105 382.725 157.807 384.869 154.51C385.947 152.85 387.025 151.19 388.102 149.529C390.926 145.175 393.768 140.834 396.636 136.508C397.231 135.607 397.825 134.706 398.437 133.777C399.574 132.055 400.715 130.336 401.863 128.621C406.221 121.996 408.999 116.153 408 108C405.845 101.178 402.059 95.9124 396 92.1251C389.562 89.7107 383.167 89.8558 376.385 89.8663C374.781 89.8629 374.781 89.8629 373.145 89.8595C369.562 89.8531 365.978 89.854 362.395 89.8548C359.826 89.8518 357.256 89.8484 354.687 89.8446C348.433 89.8363 342.179 89.8336 335.924 89.833C330.84 89.8325 325.755 89.8305 320.67 89.8273C306.248 89.8185 291.825 89.8139 277.403 89.8146C276.626 89.8147 275.849 89.8147 275.048 89.8148C274.27 89.8148 273.492 89.8148 272.69 89.8149C260.08 89.8153 247.47 89.8057 234.859 89.7916C221.904 89.7772 208.95 89.7703 195.995 89.7712C188.724 89.7715 181.454 89.7688 174.183 89.758C167.346 89.748 160.509 89.7483 153.672 89.7555C151.163 89.7566 148.654 89.7542 146.145 89.7482C142.719 89.7405 139.294 89.7451 135.868 89.7528C134.876 89.7477 133.884 89.7425 132.862 89.7372C123.877 89.7819 115.618 90.7433 109.332 97.8985Z" fill="#0071E3"/>
</g>
<defs>
<clipPath id="clip0_52_5">
<rect width="512" height="512" fill="white"/>
</clipPath>
</defs>
</svg>
